<mxfile host="app.diagrams.net" modified="2023-10-06T19:31:29.581Z" agent="Mozilla/5.0 (Windows NT 10.0; Win64; x64) AppleWebKit/537.36 (KHTML, like Gecko) Chrome/117.0.0.0 Safari/537.36" etag="4Cfs14Xs8f3O96QZquXg" version="22.0.3" type="github">
  <diagram id="C5RBs43oDa-KdzZeNtuy" name="Page-1">
    <mxGraphModel dx="1877" dy="534" grid="1" gridSize="10" guides="1" tooltips="1" connect="1" arrows="1" fold="1" page="1" pageScale="1" pageWidth="827" pageHeight="1169" math="0" shadow="0">
      <root>
        <mxCell id="WIyWlLk6GJQsqaUBKTNV-0" />
        <mxCell id="WIyWlLk6GJQsqaUBKTNV-1" parent="WIyWlLk6GJQsqaUBKTNV-0" />
        <mxCell id="9HEpveWAv9ixlDzTCL7B-12" style="edgeStyle=orthogonalEdgeStyle;rounded=0;orthogonalLoop=1;jettySize=auto;html=1;exitX=0.5;exitY=1;exitDx=0;exitDy=0;entryX=0.5;entryY=0;entryDx=0;entryDy=0;" parent="WIyWlLk6GJQsqaUBKTNV-1" source="9HEpveWAv9ixlDzTCL7B-0" target="9HEpveWAv9ixlDzTCL7B-9" edge="1">
          <mxGeometry relative="1" as="geometry" />
        </mxCell>
        <mxCell id="9HEpveWAv9ixlDzTCL7B-0" value="START" style="rounded=1;whiteSpace=wrap;html=1;arcSize=50;" parent="WIyWlLk6GJQsqaUBKTNV-1" vertex="1">
          <mxGeometry x="60" y="200" width="120" height="40" as="geometry" />
        </mxCell>
        <mxCell id="rqn4Hq65323MsPB9Nm2r-11" style="edgeStyle=orthogonalEdgeStyle;rounded=0;orthogonalLoop=1;jettySize=auto;html=1;exitX=1;exitY=0.5;exitDx=0;exitDy=0;" edge="1" parent="WIyWlLk6GJQsqaUBKTNV-1" source="9HEpveWAv9ixlDzTCL7B-3" target="rqn4Hq65323MsPB9Nm2r-6">
          <mxGeometry relative="1" as="geometry" />
        </mxCell>
        <mxCell id="rqn4Hq65323MsPB9Nm2r-63" style="edgeStyle=orthogonalEdgeStyle;rounded=0;orthogonalLoop=1;jettySize=auto;html=1;exitX=0.5;exitY=1;exitDx=0;exitDy=0;entryX=0.5;entryY=0;entryDx=0;entryDy=0;" edge="1" parent="WIyWlLk6GJQsqaUBKTNV-1" source="9HEpveWAv9ixlDzTCL7B-3" target="rqn4Hq65323MsPB9Nm2r-37">
          <mxGeometry relative="1" as="geometry" />
        </mxCell>
        <mxCell id="9HEpveWAv9ixlDzTCL7B-3" value="jenis = &#39;A&#39;" style="rhombus;whiteSpace=wrap;html=1;" parent="WIyWlLk6GJQsqaUBKTNV-1" vertex="1">
          <mxGeometry x="80" y="640" width="80" height="80" as="geometry" />
        </mxCell>
        <mxCell id="rqn4Hq65323MsPB9Nm2r-4" style="edgeStyle=orthogonalEdgeStyle;rounded=0;orthogonalLoop=1;jettySize=auto;html=1;exitX=0.5;exitY=1;exitDx=0;exitDy=0;entryX=0.5;entryY=0;entryDx=0;entryDy=0;" edge="1" parent="WIyWlLk6GJQsqaUBKTNV-1" source="9HEpveWAv9ixlDzTCL7B-9" target="rqn4Hq65323MsPB9Nm2r-2">
          <mxGeometry relative="1" as="geometry" />
        </mxCell>
        <mxCell id="9HEpveWAv9ixlDzTCL7B-9" value="&lt;div&gt;int diskonA, diskonB, diskonC;&lt;/div&gt;&lt;div&gt;char jenis;&lt;span style=&quot;&quot;&gt;&lt;/span&gt;&lt;/div&gt;&lt;div&gt;&lt;span style=&quot;&quot;&gt;&lt;span style=&quot;&quot;&gt;&lt;span style=&quot;white-space: pre;&quot;&gt;&amp;nbsp;&amp;nbsp;&amp;nbsp;&amp;nbsp;&lt;/span&gt;&lt;/span&gt;float kode, hargaAwal, hargaAkhir;&lt;/span&gt;&lt;/div&gt;" style="shape=parallelogram;perimeter=parallelogramPerimeter;whiteSpace=wrap;html=1;fixedSize=1;" parent="WIyWlLk6GJQsqaUBKTNV-1" vertex="1">
          <mxGeometry x="40" y="280" width="160" height="80" as="geometry" />
        </mxCell>
        <mxCell id="9HEpveWAv9ixlDzTCL7B-16" value="END" style="rounded=1;whiteSpace=wrap;html=1;arcSize=50;" parent="WIyWlLk6GJQsqaUBKTNV-1" vertex="1">
          <mxGeometry x="60" y="2160" width="120" height="40" as="geometry" />
        </mxCell>
        <mxCell id="rqn4Hq65323MsPB9Nm2r-5" style="edgeStyle=orthogonalEdgeStyle;rounded=0;orthogonalLoop=1;jettySize=auto;html=1;exitX=0.5;exitY=1;exitDx=0;exitDy=0;entryX=0.5;entryY=0;entryDx=0;entryDy=0;" edge="1" parent="WIyWlLk6GJQsqaUBKTNV-1" source="rqn4Hq65323MsPB9Nm2r-2" target="9HEpveWAv9ixlDzTCL7B-3">
          <mxGeometry relative="1" as="geometry" />
        </mxCell>
        <mxCell id="rqn4Hq65323MsPB9Nm2r-2" value="&lt;div&gt;&quot;A. Jenis Belanja Type A&quot;&lt;/div&gt;&lt;div&gt;&quot;1. Jumlah Diskon&quot;&lt;/div&gt;&lt;div&gt;&quot;2. Jumlah Total Bayar&quot;&lt;/div&gt;&lt;div&gt;&quot;3. Jumlah Diskon dan Total Bayar&quot;&lt;/div&gt;&lt;div&gt;&quot;B. Jenis Belanja Type B&quot;&lt;/div&gt;&lt;div&gt;&quot;1. Jumlah Diskon&quot;&lt;/div&gt;&lt;div&gt;&quot;2. Jumlah Total Bayar&quot;&lt;/div&gt;&lt;div&gt;&quot;3. Jumlah Diskon dan Total Bayar&quot;&lt;/div&gt;&lt;div&gt;&quot;C. Jenis Belanja Type C&quot;&lt;/div&gt;&lt;div&gt;&quot;1. Jumlah Diskon&quot;&lt;/div&gt;&lt;div&gt;&quot;2. Jumlah Total Bayar&quot;&lt;/div&gt;&lt;div&gt;&quot;3. Jumlah Diskon dan Total Bayar&quot;&lt;/div&gt;&lt;div&gt;&quot;Masukan Jenis Belanja yang Anda Inginkan (A-D):&quot;&lt;/div&gt;" style="shape=parallelogram;perimeter=parallelogramPerimeter;whiteSpace=wrap;html=1;fixedSize=1;align=center;" vertex="1" parent="WIyWlLk6GJQsqaUBKTNV-1">
          <mxGeometry x="-45" y="400" width="330" height="200" as="geometry" />
        </mxCell>
        <mxCell id="rqn4Hq65323MsPB9Nm2r-12" style="edgeStyle=orthogonalEdgeStyle;rounded=0;orthogonalLoop=1;jettySize=auto;html=1;exitX=1;exitY=0.5;exitDx=0;exitDy=0;entryX=0;entryY=0.5;entryDx=0;entryDy=0;" edge="1" parent="WIyWlLk6GJQsqaUBKTNV-1" source="rqn4Hq65323MsPB9Nm2r-6" target="rqn4Hq65323MsPB9Nm2r-9">
          <mxGeometry relative="1" as="geometry" />
        </mxCell>
        <mxCell id="rqn4Hq65323MsPB9Nm2r-6" value="&quot;Anda Memilih Jenis Belanja A&quot;&lt;br&gt;&quot; - Masukan Kode: &quot;" style="shape=parallelogram;perimeter=parallelogramPerimeter;whiteSpace=wrap;html=1;fixedSize=1;" vertex="1" parent="WIyWlLk6GJQsqaUBKTNV-1">
          <mxGeometry x="200" y="640" width="200" height="80" as="geometry" />
        </mxCell>
        <mxCell id="rqn4Hq65323MsPB9Nm2r-14" style="edgeStyle=orthogonalEdgeStyle;rounded=0;orthogonalLoop=1;jettySize=auto;html=1;exitX=1;exitY=0.5;exitDx=0;exitDy=0;entryX=0;entryY=0.5;entryDx=0;entryDy=0;" edge="1" parent="WIyWlLk6GJQsqaUBKTNV-1" source="rqn4Hq65323MsPB9Nm2r-9" target="rqn4Hq65323MsPB9Nm2r-13">
          <mxGeometry relative="1" as="geometry" />
        </mxCell>
        <mxCell id="rqn4Hq65323MsPB9Nm2r-9" value="kode" style="shape=parallelogram;perimeter=parallelogramPerimeter;whiteSpace=wrap;html=1;fixedSize=1;" vertex="1" parent="WIyWlLk6GJQsqaUBKTNV-1">
          <mxGeometry x="440" y="655" width="120" height="50" as="geometry" />
        </mxCell>
        <mxCell id="rqn4Hq65323MsPB9Nm2r-16" style="edgeStyle=orthogonalEdgeStyle;rounded=0;orthogonalLoop=1;jettySize=auto;html=1;exitX=1;exitY=0.5;exitDx=0;exitDy=0;entryX=0;entryY=0.5;entryDx=0;entryDy=0;" edge="1" parent="WIyWlLk6GJQsqaUBKTNV-1" source="rqn4Hq65323MsPB9Nm2r-13" target="rqn4Hq65323MsPB9Nm2r-15">
          <mxGeometry relative="1" as="geometry" />
        </mxCell>
        <mxCell id="rqn4Hq65323MsPB9Nm2r-13" value="&quot;&amp;nbsp;- Masukan Harga: &quot;" style="shape=parallelogram;perimeter=parallelogramPerimeter;whiteSpace=wrap;html=1;fixedSize=1;" vertex="1" parent="WIyWlLk6GJQsqaUBKTNV-1">
          <mxGeometry x="600" y="650" width="160" height="60" as="geometry" />
        </mxCell>
        <mxCell id="rqn4Hq65323MsPB9Nm2r-19" style="edgeStyle=orthogonalEdgeStyle;rounded=0;orthogonalLoop=1;jettySize=auto;html=1;exitX=1;exitY=0.5;exitDx=0;exitDy=0;" edge="1" parent="WIyWlLk6GJQsqaUBKTNV-1" source="rqn4Hq65323MsPB9Nm2r-15" target="rqn4Hq65323MsPB9Nm2r-18">
          <mxGeometry relative="1" as="geometry" />
        </mxCell>
        <mxCell id="rqn4Hq65323MsPB9Nm2r-15" value="hargaAwal" style="shape=parallelogram;perimeter=parallelogramPerimeter;whiteSpace=wrap;html=1;fixedSize=1;" vertex="1" parent="WIyWlLk6GJQsqaUBKTNV-1">
          <mxGeometry x="800" y="655" width="120" height="50" as="geometry" />
        </mxCell>
        <mxCell id="rqn4Hq65323MsPB9Nm2r-21" style="edgeStyle=orthogonalEdgeStyle;rounded=0;orthogonalLoop=1;jettySize=auto;html=1;exitX=1;exitY=0.5;exitDx=0;exitDy=0;entryX=0;entryY=0.5;entryDx=0;entryDy=0;" edge="1" parent="WIyWlLk6GJQsqaUBKTNV-1" source="rqn4Hq65323MsPB9Nm2r-18" target="rqn4Hq65323MsPB9Nm2r-20">
          <mxGeometry relative="1" as="geometry" />
        </mxCell>
        <mxCell id="rqn4Hq65323MsPB9Nm2r-18" value="&lt;div&gt;&quot;1. Bayar&quot;&lt;/div&gt;&lt;div&gt;&quot;2. Keluar Program&quot;&lt;/div&gt;&lt;div&gt;&quot;Silahkan Pilih [1/2]:&quot;&lt;/div&gt;" style="shape=parallelogram;perimeter=parallelogramPerimeter;whiteSpace=wrap;html=1;fixedSize=1;" vertex="1" parent="WIyWlLk6GJQsqaUBKTNV-1">
          <mxGeometry x="960" y="650" width="160" height="60" as="geometry" />
        </mxCell>
        <mxCell id="rqn4Hq65323MsPB9Nm2r-23" style="edgeStyle=orthogonalEdgeStyle;rounded=0;orthogonalLoop=1;jettySize=auto;html=1;exitX=1;exitY=0.5;exitDx=0;exitDy=0;entryX=0;entryY=0.5;entryDx=0;entryDy=0;" edge="1" parent="WIyWlLk6GJQsqaUBKTNV-1" source="rqn4Hq65323MsPB9Nm2r-20" target="rqn4Hq65323MsPB9Nm2r-22">
          <mxGeometry relative="1" as="geometry" />
        </mxCell>
        <mxCell id="rqn4Hq65323MsPB9Nm2r-20" value="diskonA" style="shape=parallelogram;perimeter=parallelogramPerimeter;whiteSpace=wrap;html=1;fixedSize=1;" vertex="1" parent="WIyWlLk6GJQsqaUBKTNV-1">
          <mxGeometry x="1160" y="650" width="120" height="60" as="geometry" />
        </mxCell>
        <mxCell id="rqn4Hq65323MsPB9Nm2r-25" style="edgeStyle=orthogonalEdgeStyle;rounded=0;orthogonalLoop=1;jettySize=auto;html=1;exitX=1;exitY=0.5;exitDx=0;exitDy=0;entryX=0;entryY=0.5;entryDx=0;entryDy=0;" edge="1" parent="WIyWlLk6GJQsqaUBKTNV-1" source="rqn4Hq65323MsPB9Nm2r-22" target="rqn4Hq65323MsPB9Nm2r-24">
          <mxGeometry relative="1" as="geometry" />
        </mxCell>
        <mxCell id="rqn4Hq65323MsPB9Nm2r-27" style="edgeStyle=orthogonalEdgeStyle;rounded=0;orthogonalLoop=1;jettySize=auto;html=1;exitX=0.5;exitY=1;exitDx=0;exitDy=0;entryX=0.5;entryY=0;entryDx=0;entryDy=0;" edge="1" parent="WIyWlLk6GJQsqaUBKTNV-1" source="rqn4Hq65323MsPB9Nm2r-22" target="rqn4Hq65323MsPB9Nm2r-26">
          <mxGeometry relative="1" as="geometry" />
        </mxCell>
        <mxCell id="rqn4Hq65323MsPB9Nm2r-22" value="diskonA = 1" style="rhombus;whiteSpace=wrap;html=1;" vertex="1" parent="WIyWlLk6GJQsqaUBKTNV-1">
          <mxGeometry x="1320" y="640" width="80" height="80" as="geometry" />
        </mxCell>
        <mxCell id="rqn4Hq65323MsPB9Nm2r-113" style="edgeStyle=orthogonalEdgeStyle;rounded=0;orthogonalLoop=1;jettySize=auto;html=1;exitX=1;exitY=0.5;exitDx=0;exitDy=0;" edge="1" parent="WIyWlLk6GJQsqaUBKTNV-1" source="rqn4Hq65323MsPB9Nm2r-24">
          <mxGeometry relative="1" as="geometry">
            <mxPoint x="120" y="2120" as="targetPoint" />
            <Array as="points">
              <mxPoint x="1840" y="680" />
              <mxPoint x="1840" y="2120" />
            </Array>
          </mxGeometry>
        </mxCell>
        <mxCell id="rqn4Hq65323MsPB9Nm2r-24" value="&lt;div&gt;hargaAkhir = hargaAwal - (hargaAwal * 0.1)&lt;/div&gt;&lt;div&gt;&quot;Jenis Belanja Type A&quot;&lt;/div&gt;&lt;div&gt;&quot;Jumlah Harga Sebelum diskon =&quot; hargaAwal&lt;/div&gt;&lt;div&gt;&quot;Jumlah diskon = 10%&quot;&lt;br&gt;&lt;/div&gt;&lt;div&gt;&quot;Jumlah Harga setelah diskon =&quot; hargaAkhir&lt;/div&gt;" style="shape=parallelogram;perimeter=parallelogramPerimeter;whiteSpace=wrap;html=1;fixedSize=1;" vertex="1" parent="WIyWlLk6GJQsqaUBKTNV-1">
          <mxGeometry x="1440" y="615" width="280" height="130" as="geometry" />
        </mxCell>
        <mxCell id="rqn4Hq65323MsPB9Nm2r-29" style="edgeStyle=orthogonalEdgeStyle;rounded=0;orthogonalLoop=1;jettySize=auto;html=1;exitX=1;exitY=0.5;exitDx=0;exitDy=0;" edge="1" parent="WIyWlLk6GJQsqaUBKTNV-1" source="rqn4Hq65323MsPB9Nm2r-26" target="rqn4Hq65323MsPB9Nm2r-28">
          <mxGeometry relative="1" as="geometry" />
        </mxCell>
        <mxCell id="rqn4Hq65323MsPB9Nm2r-31" style="edgeStyle=orthogonalEdgeStyle;rounded=0;orthogonalLoop=1;jettySize=auto;html=1;exitX=0.5;exitY=1;exitDx=0;exitDy=0;entryX=0.5;entryY=0;entryDx=0;entryDy=0;" edge="1" parent="WIyWlLk6GJQsqaUBKTNV-1" source="rqn4Hq65323MsPB9Nm2r-26" target="rqn4Hq65323MsPB9Nm2r-30">
          <mxGeometry relative="1" as="geometry" />
        </mxCell>
        <mxCell id="rqn4Hq65323MsPB9Nm2r-26" value="diskonA = 2" style="rhombus;whiteSpace=wrap;html=1;" vertex="1" parent="WIyWlLk6GJQsqaUBKTNV-1">
          <mxGeometry x="1320" y="760" width="80" height="80" as="geometry" />
        </mxCell>
        <mxCell id="rqn4Hq65323MsPB9Nm2r-116" style="edgeStyle=orthogonalEdgeStyle;rounded=0;orthogonalLoop=1;jettySize=auto;html=1;exitX=1;exitY=0.5;exitDx=0;exitDy=0;" edge="1" parent="WIyWlLk6GJQsqaUBKTNV-1" source="rqn4Hq65323MsPB9Nm2r-28">
          <mxGeometry relative="1" as="geometry">
            <mxPoint x="1840" y="800" as="targetPoint" />
          </mxGeometry>
        </mxCell>
        <mxCell id="rqn4Hq65323MsPB9Nm2r-28" value="&quot; Anda Keluar Dari Program &quot;" style="shape=parallelogram;perimeter=parallelogramPerimeter;whiteSpace=wrap;html=1;fixedSize=1;" vertex="1" parent="WIyWlLk6GJQsqaUBKTNV-1">
          <mxGeometry x="1440" y="770" width="140" height="60" as="geometry" />
        </mxCell>
        <mxCell id="rqn4Hq65323MsPB9Nm2r-117" style="edgeStyle=orthogonalEdgeStyle;rounded=0;orthogonalLoop=1;jettySize=auto;html=1;exitX=1;exitY=0.5;exitDx=0;exitDy=0;" edge="1" parent="WIyWlLk6GJQsqaUBKTNV-1" source="rqn4Hq65323MsPB9Nm2r-30">
          <mxGeometry relative="1" as="geometry">
            <mxPoint x="1840" y="910.6666666666667" as="targetPoint" />
          </mxGeometry>
        </mxCell>
        <mxCell id="rqn4Hq65323MsPB9Nm2r-30" value="&quot;Pilihan Tidak Valid&quot;" style="shape=parallelogram;perimeter=parallelogramPerimeter;whiteSpace=wrap;html=1;fixedSize=1;" vertex="1" parent="WIyWlLk6GJQsqaUBKTNV-1">
          <mxGeometry x="1290" y="880" width="140" height="60" as="geometry" />
        </mxCell>
        <mxCell id="rqn4Hq65323MsPB9Nm2r-32" value="&lt;b&gt;T&lt;/b&gt;" style="text;html=1;align=center;verticalAlign=middle;resizable=0;points=[];autosize=1;strokeColor=none;fillColor=none;" vertex="1" parent="WIyWlLk6GJQsqaUBKTNV-1">
          <mxGeometry x="1400" y="650" width="30" height="30" as="geometry" />
        </mxCell>
        <mxCell id="rqn4Hq65323MsPB9Nm2r-33" value="&lt;b&gt;F&lt;/b&gt;" style="text;html=1;align=center;verticalAlign=middle;resizable=0;points=[];autosize=1;strokeColor=none;fillColor=none;" vertex="1" parent="WIyWlLk6GJQsqaUBKTNV-1">
          <mxGeometry x="1330" y="720" width="30" height="30" as="geometry" />
        </mxCell>
        <mxCell id="rqn4Hq65323MsPB9Nm2r-34" value="&lt;b&gt;T&lt;/b&gt;" style="text;html=1;align=center;verticalAlign=middle;resizable=0;points=[];autosize=1;strokeColor=none;fillColor=none;" vertex="1" parent="WIyWlLk6GJQsqaUBKTNV-1">
          <mxGeometry x="1400" y="770" width="30" height="30" as="geometry" />
        </mxCell>
        <mxCell id="rqn4Hq65323MsPB9Nm2r-35" value="&lt;b&gt;F&lt;/b&gt;" style="text;html=1;align=center;verticalAlign=middle;resizable=0;points=[];autosize=1;strokeColor=none;fillColor=none;" vertex="1" parent="WIyWlLk6GJQsqaUBKTNV-1">
          <mxGeometry x="1330" y="840" width="30" height="30" as="geometry" />
        </mxCell>
        <mxCell id="rqn4Hq65323MsPB9Nm2r-36" style="edgeStyle=orthogonalEdgeStyle;rounded=0;orthogonalLoop=1;jettySize=auto;html=1;exitX=1;exitY=0.5;exitDx=0;exitDy=0;" edge="1" parent="WIyWlLk6GJQsqaUBKTNV-1" source="rqn4Hq65323MsPB9Nm2r-37" target="rqn4Hq65323MsPB9Nm2r-39">
          <mxGeometry relative="1" as="geometry" />
        </mxCell>
        <mxCell id="rqn4Hq65323MsPB9Nm2r-95" style="edgeStyle=orthogonalEdgeStyle;rounded=0;orthogonalLoop=1;jettySize=auto;html=1;exitX=0.5;exitY=1;exitDx=0;exitDy=0;entryX=0.5;entryY=0;entryDx=0;entryDy=0;" edge="1" parent="WIyWlLk6GJQsqaUBKTNV-1" source="rqn4Hq65323MsPB9Nm2r-37" target="rqn4Hq65323MsPB9Nm2r-68">
          <mxGeometry relative="1" as="geometry" />
        </mxCell>
        <mxCell id="rqn4Hq65323MsPB9Nm2r-37" value="jenis = &#39;B&#39;" style="rhombus;whiteSpace=wrap;html=1;" vertex="1" parent="WIyWlLk6GJQsqaUBKTNV-1">
          <mxGeometry x="80" y="1000" width="80" height="80" as="geometry" />
        </mxCell>
        <mxCell id="rqn4Hq65323MsPB9Nm2r-38" style="edgeStyle=orthogonalEdgeStyle;rounded=0;orthogonalLoop=1;jettySize=auto;html=1;exitX=1;exitY=0.5;exitDx=0;exitDy=0;entryX=0;entryY=0.5;entryDx=0;entryDy=0;" edge="1" parent="WIyWlLk6GJQsqaUBKTNV-1" source="rqn4Hq65323MsPB9Nm2r-39" target="rqn4Hq65323MsPB9Nm2r-41">
          <mxGeometry relative="1" as="geometry" />
        </mxCell>
        <mxCell id="rqn4Hq65323MsPB9Nm2r-39" value="&quot;Anda Memilih Jenis Belanja B&quot;&lt;br&gt;&quot; - Masukan Kode: &quot;" style="shape=parallelogram;perimeter=parallelogramPerimeter;whiteSpace=wrap;html=1;fixedSize=1;" vertex="1" parent="WIyWlLk6GJQsqaUBKTNV-1">
          <mxGeometry x="200" y="1000" width="200" height="80" as="geometry" />
        </mxCell>
        <mxCell id="rqn4Hq65323MsPB9Nm2r-40" style="edgeStyle=orthogonalEdgeStyle;rounded=0;orthogonalLoop=1;jettySize=auto;html=1;exitX=1;exitY=0.5;exitDx=0;exitDy=0;entryX=0;entryY=0.5;entryDx=0;entryDy=0;" edge="1" parent="WIyWlLk6GJQsqaUBKTNV-1" source="rqn4Hq65323MsPB9Nm2r-41" target="rqn4Hq65323MsPB9Nm2r-43">
          <mxGeometry relative="1" as="geometry" />
        </mxCell>
        <mxCell id="rqn4Hq65323MsPB9Nm2r-41" value="kode" style="shape=parallelogram;perimeter=parallelogramPerimeter;whiteSpace=wrap;html=1;fixedSize=1;" vertex="1" parent="WIyWlLk6GJQsqaUBKTNV-1">
          <mxGeometry x="440" y="1015" width="120" height="50" as="geometry" />
        </mxCell>
        <mxCell id="rqn4Hq65323MsPB9Nm2r-42" style="edgeStyle=orthogonalEdgeStyle;rounded=0;orthogonalLoop=1;jettySize=auto;html=1;exitX=1;exitY=0.5;exitDx=0;exitDy=0;entryX=0;entryY=0.5;entryDx=0;entryDy=0;" edge="1" parent="WIyWlLk6GJQsqaUBKTNV-1" source="rqn4Hq65323MsPB9Nm2r-43" target="rqn4Hq65323MsPB9Nm2r-45">
          <mxGeometry relative="1" as="geometry" />
        </mxCell>
        <mxCell id="rqn4Hq65323MsPB9Nm2r-43" value="&quot;&amp;nbsp;- Masukan Harga: &quot;" style="shape=parallelogram;perimeter=parallelogramPerimeter;whiteSpace=wrap;html=1;fixedSize=1;" vertex="1" parent="WIyWlLk6GJQsqaUBKTNV-1">
          <mxGeometry x="600" y="1010" width="160" height="60" as="geometry" />
        </mxCell>
        <mxCell id="rqn4Hq65323MsPB9Nm2r-44" style="edgeStyle=orthogonalEdgeStyle;rounded=0;orthogonalLoop=1;jettySize=auto;html=1;exitX=1;exitY=0.5;exitDx=0;exitDy=0;" edge="1" parent="WIyWlLk6GJQsqaUBKTNV-1" source="rqn4Hq65323MsPB9Nm2r-45" target="rqn4Hq65323MsPB9Nm2r-47">
          <mxGeometry relative="1" as="geometry" />
        </mxCell>
        <mxCell id="rqn4Hq65323MsPB9Nm2r-45" value="hargaAwal" style="shape=parallelogram;perimeter=parallelogramPerimeter;whiteSpace=wrap;html=1;fixedSize=1;" vertex="1" parent="WIyWlLk6GJQsqaUBKTNV-1">
          <mxGeometry x="800" y="1015" width="120" height="50" as="geometry" />
        </mxCell>
        <mxCell id="rqn4Hq65323MsPB9Nm2r-46" style="edgeStyle=orthogonalEdgeStyle;rounded=0;orthogonalLoop=1;jettySize=auto;html=1;exitX=1;exitY=0.5;exitDx=0;exitDy=0;entryX=0;entryY=0.5;entryDx=0;entryDy=0;" edge="1" parent="WIyWlLk6GJQsqaUBKTNV-1" source="rqn4Hq65323MsPB9Nm2r-47" target="rqn4Hq65323MsPB9Nm2r-49">
          <mxGeometry relative="1" as="geometry" />
        </mxCell>
        <mxCell id="rqn4Hq65323MsPB9Nm2r-47" value="&lt;div&gt;&quot;1. Bayar&quot;&lt;/div&gt;&lt;div&gt;&quot;2. Keluar Program&quot;&lt;/div&gt;&lt;div&gt;&quot;Silahkan Pilih [1/2]:&quot;&lt;/div&gt;" style="shape=parallelogram;perimeter=parallelogramPerimeter;whiteSpace=wrap;html=1;fixedSize=1;" vertex="1" parent="WIyWlLk6GJQsqaUBKTNV-1">
          <mxGeometry x="960" y="1010" width="160" height="60" as="geometry" />
        </mxCell>
        <mxCell id="rqn4Hq65323MsPB9Nm2r-48" style="edgeStyle=orthogonalEdgeStyle;rounded=0;orthogonalLoop=1;jettySize=auto;html=1;exitX=1;exitY=0.5;exitDx=0;exitDy=0;entryX=0;entryY=0.5;entryDx=0;entryDy=0;" edge="1" parent="WIyWlLk6GJQsqaUBKTNV-1" source="rqn4Hq65323MsPB9Nm2r-49" target="rqn4Hq65323MsPB9Nm2r-52">
          <mxGeometry relative="1" as="geometry" />
        </mxCell>
        <mxCell id="rqn4Hq65323MsPB9Nm2r-49" value="diskonB" style="shape=parallelogram;perimeter=parallelogramPerimeter;whiteSpace=wrap;html=1;fixedSize=1;" vertex="1" parent="WIyWlLk6GJQsqaUBKTNV-1">
          <mxGeometry x="1160" y="1010" width="120" height="60" as="geometry" />
        </mxCell>
        <mxCell id="rqn4Hq65323MsPB9Nm2r-50" style="edgeStyle=orthogonalEdgeStyle;rounded=0;orthogonalLoop=1;jettySize=auto;html=1;exitX=1;exitY=0.5;exitDx=0;exitDy=0;entryX=0;entryY=0.5;entryDx=0;entryDy=0;" edge="1" parent="WIyWlLk6GJQsqaUBKTNV-1" source="rqn4Hq65323MsPB9Nm2r-52" target="rqn4Hq65323MsPB9Nm2r-53">
          <mxGeometry relative="1" as="geometry" />
        </mxCell>
        <mxCell id="rqn4Hq65323MsPB9Nm2r-51" style="edgeStyle=orthogonalEdgeStyle;rounded=0;orthogonalLoop=1;jettySize=auto;html=1;exitX=0.5;exitY=1;exitDx=0;exitDy=0;entryX=0.5;entryY=0;entryDx=0;entryDy=0;" edge="1" parent="WIyWlLk6GJQsqaUBKTNV-1" source="rqn4Hq65323MsPB9Nm2r-52" target="rqn4Hq65323MsPB9Nm2r-56">
          <mxGeometry relative="1" as="geometry" />
        </mxCell>
        <mxCell id="rqn4Hq65323MsPB9Nm2r-52" value="diskonB = 1" style="rhombus;whiteSpace=wrap;html=1;" vertex="1" parent="WIyWlLk6GJQsqaUBKTNV-1">
          <mxGeometry x="1320" y="1000" width="80" height="80" as="geometry" />
        </mxCell>
        <mxCell id="rqn4Hq65323MsPB9Nm2r-110" style="edgeStyle=orthogonalEdgeStyle;rounded=0;orthogonalLoop=1;jettySize=auto;html=1;exitX=1;exitY=0.5;exitDx=0;exitDy=0;" edge="1" parent="WIyWlLk6GJQsqaUBKTNV-1">
          <mxGeometry relative="1" as="geometry">
            <mxPoint x="120" y="2080" as="targetPoint" />
            <mxPoint x="1709.5" y="1030" as="sourcePoint" />
            <Array as="points">
              <mxPoint x="1801" y="1030" />
              <mxPoint x="1801" y="2080" />
              <mxPoint x="660" y="2080" />
            </Array>
          </mxGeometry>
        </mxCell>
        <mxCell id="rqn4Hq65323MsPB9Nm2r-53" value="&lt;div&gt;hargaAkhir = hargaAwal - (hargaAwal * 0.15)&lt;/div&gt;&lt;div&gt;&quot;Jenis Belanja Type B&quot;&lt;/div&gt;&lt;div&gt;&quot;Jumlah Harga Sebelum diskon =&quot; hargaAwal&lt;/div&gt;&lt;div&gt;&quot;Jumlah diskon = 15%&quot;&lt;br&gt;&lt;/div&gt;&lt;div&gt;&quot;Jumlah Harga setelah diskon =&quot; hargaAkhir&lt;/div&gt;" style="shape=parallelogram;perimeter=parallelogramPerimeter;whiteSpace=wrap;html=1;fixedSize=1;" vertex="1" parent="WIyWlLk6GJQsqaUBKTNV-1">
          <mxGeometry x="1440" y="975" width="280" height="130" as="geometry" />
        </mxCell>
        <mxCell id="rqn4Hq65323MsPB9Nm2r-54" style="edgeStyle=orthogonalEdgeStyle;rounded=0;orthogonalLoop=1;jettySize=auto;html=1;exitX=1;exitY=0.5;exitDx=0;exitDy=0;" edge="1" parent="WIyWlLk6GJQsqaUBKTNV-1" source="rqn4Hq65323MsPB9Nm2r-56" target="rqn4Hq65323MsPB9Nm2r-57">
          <mxGeometry relative="1" as="geometry" />
        </mxCell>
        <mxCell id="rqn4Hq65323MsPB9Nm2r-55" style="edgeStyle=orthogonalEdgeStyle;rounded=0;orthogonalLoop=1;jettySize=auto;html=1;exitX=0.5;exitY=1;exitDx=0;exitDy=0;entryX=0.5;entryY=0;entryDx=0;entryDy=0;" edge="1" parent="WIyWlLk6GJQsqaUBKTNV-1" source="rqn4Hq65323MsPB9Nm2r-56" target="rqn4Hq65323MsPB9Nm2r-58">
          <mxGeometry relative="1" as="geometry" />
        </mxCell>
        <mxCell id="rqn4Hq65323MsPB9Nm2r-56" value="diskonB = 2" style="rhombus;whiteSpace=wrap;html=1;" vertex="1" parent="WIyWlLk6GJQsqaUBKTNV-1">
          <mxGeometry x="1320" y="1120" width="80" height="80" as="geometry" />
        </mxCell>
        <mxCell id="rqn4Hq65323MsPB9Nm2r-114" style="edgeStyle=orthogonalEdgeStyle;rounded=0;orthogonalLoop=1;jettySize=auto;html=1;exitX=1;exitY=0.5;exitDx=0;exitDy=0;" edge="1" parent="WIyWlLk6GJQsqaUBKTNV-1" source="rqn4Hq65323MsPB9Nm2r-57">
          <mxGeometry relative="1" as="geometry">
            <mxPoint x="1800" y="1160" as="targetPoint" />
          </mxGeometry>
        </mxCell>
        <mxCell id="rqn4Hq65323MsPB9Nm2r-57" value="&quot; Anda Keluar Dari Program &quot;" style="shape=parallelogram;perimeter=parallelogramPerimeter;whiteSpace=wrap;html=1;fixedSize=1;" vertex="1" parent="WIyWlLk6GJQsqaUBKTNV-1">
          <mxGeometry x="1440" y="1130" width="140" height="60" as="geometry" />
        </mxCell>
        <mxCell id="rqn4Hq65323MsPB9Nm2r-115" style="edgeStyle=orthogonalEdgeStyle;rounded=0;orthogonalLoop=1;jettySize=auto;html=1;exitX=1;exitY=0.5;exitDx=0;exitDy=0;" edge="1" parent="WIyWlLk6GJQsqaUBKTNV-1" source="rqn4Hq65323MsPB9Nm2r-58">
          <mxGeometry relative="1" as="geometry">
            <mxPoint x="1800" y="1270.6666666666667" as="targetPoint" />
          </mxGeometry>
        </mxCell>
        <mxCell id="rqn4Hq65323MsPB9Nm2r-58" value="&quot;Pilihan Tidak Valid&quot;" style="shape=parallelogram;perimeter=parallelogramPerimeter;whiteSpace=wrap;html=1;fixedSize=1;" vertex="1" parent="WIyWlLk6GJQsqaUBKTNV-1">
          <mxGeometry x="1290" y="1240" width="140" height="60" as="geometry" />
        </mxCell>
        <mxCell id="rqn4Hq65323MsPB9Nm2r-59" value="&lt;b&gt;T&lt;/b&gt;" style="text;html=1;align=center;verticalAlign=middle;resizable=0;points=[];autosize=1;strokeColor=none;fillColor=none;" vertex="1" parent="WIyWlLk6GJQsqaUBKTNV-1">
          <mxGeometry x="1400" y="1010" width="30" height="30" as="geometry" />
        </mxCell>
        <mxCell id="rqn4Hq65323MsPB9Nm2r-60" value="&lt;b&gt;F&lt;/b&gt;" style="text;html=1;align=center;verticalAlign=middle;resizable=0;points=[];autosize=1;strokeColor=none;fillColor=none;" vertex="1" parent="WIyWlLk6GJQsqaUBKTNV-1">
          <mxGeometry x="1330" y="1080" width="30" height="30" as="geometry" />
        </mxCell>
        <mxCell id="rqn4Hq65323MsPB9Nm2r-61" value="&lt;b&gt;T&lt;/b&gt;" style="text;html=1;align=center;verticalAlign=middle;resizable=0;points=[];autosize=1;strokeColor=none;fillColor=none;" vertex="1" parent="WIyWlLk6GJQsqaUBKTNV-1">
          <mxGeometry x="1400" y="1130" width="30" height="30" as="geometry" />
        </mxCell>
        <mxCell id="rqn4Hq65323MsPB9Nm2r-62" value="&lt;b&gt;F&lt;/b&gt;" style="text;html=1;align=center;verticalAlign=middle;resizable=0;points=[];autosize=1;strokeColor=none;fillColor=none;" vertex="1" parent="WIyWlLk6GJQsqaUBKTNV-1">
          <mxGeometry x="1330" y="1190" width="30" height="30" as="geometry" />
        </mxCell>
        <mxCell id="rqn4Hq65323MsPB9Nm2r-64" value="&lt;b&gt;T&lt;/b&gt;" style="text;html=1;align=center;verticalAlign=middle;resizable=0;points=[];autosize=1;strokeColor=none;fillColor=none;" vertex="1" parent="WIyWlLk6GJQsqaUBKTNV-1">
          <mxGeometry x="160" y="650" width="30" height="30" as="geometry" />
        </mxCell>
        <mxCell id="rqn4Hq65323MsPB9Nm2r-65" value="&lt;b&gt;F&lt;/b&gt;" style="text;html=1;align=center;verticalAlign=middle;resizable=0;points=[];autosize=1;strokeColor=none;fillColor=none;" vertex="1" parent="WIyWlLk6GJQsqaUBKTNV-1">
          <mxGeometry x="90" y="720" width="30" height="30" as="geometry" />
        </mxCell>
        <mxCell id="rqn4Hq65323MsPB9Nm2r-66" value="&lt;b&gt;T&lt;/b&gt;" style="text;html=1;align=center;verticalAlign=middle;resizable=0;points=[];autosize=1;strokeColor=none;fillColor=none;" vertex="1" parent="WIyWlLk6GJQsqaUBKTNV-1">
          <mxGeometry x="160" y="1010" width="30" height="30" as="geometry" />
        </mxCell>
        <mxCell id="rqn4Hq65323MsPB9Nm2r-67" style="edgeStyle=orthogonalEdgeStyle;rounded=0;orthogonalLoop=1;jettySize=auto;html=1;exitX=1;exitY=0.5;exitDx=0;exitDy=0;" edge="1" parent="WIyWlLk6GJQsqaUBKTNV-1" source="rqn4Hq65323MsPB9Nm2r-68" target="rqn4Hq65323MsPB9Nm2r-70">
          <mxGeometry relative="1" as="geometry" />
        </mxCell>
        <mxCell id="rqn4Hq65323MsPB9Nm2r-98" style="edgeStyle=orthogonalEdgeStyle;rounded=0;orthogonalLoop=1;jettySize=auto;html=1;exitX=0.5;exitY=1;exitDx=0;exitDy=0;entryX=0.5;entryY=0;entryDx=0;entryDy=0;" edge="1" parent="WIyWlLk6GJQsqaUBKTNV-1" source="rqn4Hq65323MsPB9Nm2r-68" target="rqn4Hq65323MsPB9Nm2r-97">
          <mxGeometry relative="1" as="geometry" />
        </mxCell>
        <mxCell id="rqn4Hq65323MsPB9Nm2r-68" value="jenis = &#39;C&#39;" style="rhombus;whiteSpace=wrap;html=1;" vertex="1" parent="WIyWlLk6GJQsqaUBKTNV-1">
          <mxGeometry x="80" y="1360" width="80" height="80" as="geometry" />
        </mxCell>
        <mxCell id="rqn4Hq65323MsPB9Nm2r-69" style="edgeStyle=orthogonalEdgeStyle;rounded=0;orthogonalLoop=1;jettySize=auto;html=1;exitX=1;exitY=0.5;exitDx=0;exitDy=0;entryX=0;entryY=0.5;entryDx=0;entryDy=0;" edge="1" parent="WIyWlLk6GJQsqaUBKTNV-1" source="rqn4Hq65323MsPB9Nm2r-70" target="rqn4Hq65323MsPB9Nm2r-72">
          <mxGeometry relative="1" as="geometry" />
        </mxCell>
        <mxCell id="rqn4Hq65323MsPB9Nm2r-70" value="&quot;Anda Memilih Jenis Belanja C&quot;&lt;br&gt;&quot; - Masukan Kode: &quot;" style="shape=parallelogram;perimeter=parallelogramPerimeter;whiteSpace=wrap;html=1;fixedSize=1;" vertex="1" parent="WIyWlLk6GJQsqaUBKTNV-1">
          <mxGeometry x="200" y="1360" width="200" height="80" as="geometry" />
        </mxCell>
        <mxCell id="rqn4Hq65323MsPB9Nm2r-71" style="edgeStyle=orthogonalEdgeStyle;rounded=0;orthogonalLoop=1;jettySize=auto;html=1;exitX=1;exitY=0.5;exitDx=0;exitDy=0;entryX=0;entryY=0.5;entryDx=0;entryDy=0;" edge="1" parent="WIyWlLk6GJQsqaUBKTNV-1" source="rqn4Hq65323MsPB9Nm2r-72" target="rqn4Hq65323MsPB9Nm2r-74">
          <mxGeometry relative="1" as="geometry" />
        </mxCell>
        <mxCell id="rqn4Hq65323MsPB9Nm2r-72" value="kode" style="shape=parallelogram;perimeter=parallelogramPerimeter;whiteSpace=wrap;html=1;fixedSize=1;" vertex="1" parent="WIyWlLk6GJQsqaUBKTNV-1">
          <mxGeometry x="440" y="1375" width="120" height="50" as="geometry" />
        </mxCell>
        <mxCell id="rqn4Hq65323MsPB9Nm2r-73" style="edgeStyle=orthogonalEdgeStyle;rounded=0;orthogonalLoop=1;jettySize=auto;html=1;exitX=1;exitY=0.5;exitDx=0;exitDy=0;entryX=0;entryY=0.5;entryDx=0;entryDy=0;" edge="1" parent="WIyWlLk6GJQsqaUBKTNV-1" source="rqn4Hq65323MsPB9Nm2r-74" target="rqn4Hq65323MsPB9Nm2r-76">
          <mxGeometry relative="1" as="geometry" />
        </mxCell>
        <mxCell id="rqn4Hq65323MsPB9Nm2r-74" value="&quot;&amp;nbsp;- Masukan Harga: &quot;" style="shape=parallelogram;perimeter=parallelogramPerimeter;whiteSpace=wrap;html=1;fixedSize=1;" vertex="1" parent="WIyWlLk6GJQsqaUBKTNV-1">
          <mxGeometry x="600" y="1370" width="160" height="60" as="geometry" />
        </mxCell>
        <mxCell id="rqn4Hq65323MsPB9Nm2r-75" style="edgeStyle=orthogonalEdgeStyle;rounded=0;orthogonalLoop=1;jettySize=auto;html=1;exitX=1;exitY=0.5;exitDx=0;exitDy=0;" edge="1" parent="WIyWlLk6GJQsqaUBKTNV-1" source="rqn4Hq65323MsPB9Nm2r-76" target="rqn4Hq65323MsPB9Nm2r-78">
          <mxGeometry relative="1" as="geometry" />
        </mxCell>
        <mxCell id="rqn4Hq65323MsPB9Nm2r-76" value="hargaAwal" style="shape=parallelogram;perimeter=parallelogramPerimeter;whiteSpace=wrap;html=1;fixedSize=1;" vertex="1" parent="WIyWlLk6GJQsqaUBKTNV-1">
          <mxGeometry x="800" y="1375" width="120" height="50" as="geometry" />
        </mxCell>
        <mxCell id="rqn4Hq65323MsPB9Nm2r-77" style="edgeStyle=orthogonalEdgeStyle;rounded=0;orthogonalLoop=1;jettySize=auto;html=1;exitX=1;exitY=0.5;exitDx=0;exitDy=0;entryX=0;entryY=0.5;entryDx=0;entryDy=0;" edge="1" parent="WIyWlLk6GJQsqaUBKTNV-1" source="rqn4Hq65323MsPB9Nm2r-78" target="rqn4Hq65323MsPB9Nm2r-80">
          <mxGeometry relative="1" as="geometry" />
        </mxCell>
        <mxCell id="rqn4Hq65323MsPB9Nm2r-78" value="&lt;div&gt;&quot;1. Bayar&quot;&lt;/div&gt;&lt;div&gt;&quot;2. Keluar Program&quot;&lt;/div&gt;&lt;div&gt;&quot;Silahkan Pilih [1/2]:&quot;&lt;/div&gt;" style="shape=parallelogram;perimeter=parallelogramPerimeter;whiteSpace=wrap;html=1;fixedSize=1;" vertex="1" parent="WIyWlLk6GJQsqaUBKTNV-1">
          <mxGeometry x="960" y="1370" width="160" height="60" as="geometry" />
        </mxCell>
        <mxCell id="rqn4Hq65323MsPB9Nm2r-79" style="edgeStyle=orthogonalEdgeStyle;rounded=0;orthogonalLoop=1;jettySize=auto;html=1;exitX=1;exitY=0.5;exitDx=0;exitDy=0;entryX=0;entryY=0.5;entryDx=0;entryDy=0;" edge="1" parent="WIyWlLk6GJQsqaUBKTNV-1" source="rqn4Hq65323MsPB9Nm2r-80" target="rqn4Hq65323MsPB9Nm2r-83">
          <mxGeometry relative="1" as="geometry" />
        </mxCell>
        <mxCell id="rqn4Hq65323MsPB9Nm2r-80" value="diskonC" style="shape=parallelogram;perimeter=parallelogramPerimeter;whiteSpace=wrap;html=1;fixedSize=1;" vertex="1" parent="WIyWlLk6GJQsqaUBKTNV-1">
          <mxGeometry x="1160" y="1370" width="120" height="60" as="geometry" />
        </mxCell>
        <mxCell id="rqn4Hq65323MsPB9Nm2r-81" style="edgeStyle=orthogonalEdgeStyle;rounded=0;orthogonalLoop=1;jettySize=auto;html=1;exitX=1;exitY=0.5;exitDx=0;exitDy=0;entryX=0;entryY=0.5;entryDx=0;entryDy=0;" edge="1" parent="WIyWlLk6GJQsqaUBKTNV-1" source="rqn4Hq65323MsPB9Nm2r-83" target="rqn4Hq65323MsPB9Nm2r-84">
          <mxGeometry relative="1" as="geometry" />
        </mxCell>
        <mxCell id="rqn4Hq65323MsPB9Nm2r-82" style="edgeStyle=orthogonalEdgeStyle;rounded=0;orthogonalLoop=1;jettySize=auto;html=1;exitX=0.5;exitY=1;exitDx=0;exitDy=0;entryX=0.5;entryY=0;entryDx=0;entryDy=0;" edge="1" parent="WIyWlLk6GJQsqaUBKTNV-1" source="rqn4Hq65323MsPB9Nm2r-83" target="rqn4Hq65323MsPB9Nm2r-87">
          <mxGeometry relative="1" as="geometry" />
        </mxCell>
        <mxCell id="rqn4Hq65323MsPB9Nm2r-83" value="diskonC = 1" style="rhombus;whiteSpace=wrap;html=1;" vertex="1" parent="WIyWlLk6GJQsqaUBKTNV-1">
          <mxGeometry x="1320" y="1360" width="80" height="80" as="geometry" />
        </mxCell>
        <mxCell id="rqn4Hq65323MsPB9Nm2r-109" style="edgeStyle=orthogonalEdgeStyle;rounded=0;orthogonalLoop=1;jettySize=auto;html=1;exitX=1;exitY=0.5;exitDx=0;exitDy=0;" edge="1" parent="WIyWlLk6GJQsqaUBKTNV-1" source="rqn4Hq65323MsPB9Nm2r-84">
          <mxGeometry relative="1" as="geometry">
            <mxPoint x="120" y="2040" as="targetPoint" />
            <mxPoint x="1740" y="1400" as="sourcePoint" />
            <Array as="points">
              <mxPoint x="1760" y="1401" />
              <mxPoint x="1760" y="2040" />
            </Array>
          </mxGeometry>
        </mxCell>
        <mxCell id="rqn4Hq65323MsPB9Nm2r-84" value="&lt;div&gt;hargaAkhir = hargaAwal - (hargaAwal * 0.2)&lt;/div&gt;&lt;div&gt;&quot;Jenis Belanja Type C&quot;&lt;/div&gt;&lt;div&gt;&quot;Jumlah Harga Sebelum diskon =&quot; hargaAwal&lt;/div&gt;&lt;div&gt;&quot;Jumlah diskon = 20%&quot;&lt;br&gt;&lt;/div&gt;&lt;div&gt;&quot;Jumlah Harga setelah diskon =&quot; hargaAkhir&lt;/div&gt;" style="shape=parallelogram;perimeter=parallelogramPerimeter;whiteSpace=wrap;html=1;fixedSize=1;" vertex="1" parent="WIyWlLk6GJQsqaUBKTNV-1">
          <mxGeometry x="1440" y="1335" width="280" height="130" as="geometry" />
        </mxCell>
        <mxCell id="rqn4Hq65323MsPB9Nm2r-85" style="edgeStyle=orthogonalEdgeStyle;rounded=0;orthogonalLoop=1;jettySize=auto;html=1;exitX=1;exitY=0.5;exitDx=0;exitDy=0;" edge="1" parent="WIyWlLk6GJQsqaUBKTNV-1" source="rqn4Hq65323MsPB9Nm2r-87" target="rqn4Hq65323MsPB9Nm2r-88">
          <mxGeometry relative="1" as="geometry" />
        </mxCell>
        <mxCell id="rqn4Hq65323MsPB9Nm2r-86" style="edgeStyle=orthogonalEdgeStyle;rounded=0;orthogonalLoop=1;jettySize=auto;html=1;exitX=0.5;exitY=1;exitDx=0;exitDy=0;entryX=0.5;entryY=0;entryDx=0;entryDy=0;" edge="1" parent="WIyWlLk6GJQsqaUBKTNV-1" source="rqn4Hq65323MsPB9Nm2r-87" target="rqn4Hq65323MsPB9Nm2r-89">
          <mxGeometry relative="1" as="geometry" />
        </mxCell>
        <mxCell id="rqn4Hq65323MsPB9Nm2r-87" value="diskonC = 2" style="rhombus;whiteSpace=wrap;html=1;" vertex="1" parent="WIyWlLk6GJQsqaUBKTNV-1">
          <mxGeometry x="1320" y="1480" width="80" height="80" as="geometry" />
        </mxCell>
        <mxCell id="rqn4Hq65323MsPB9Nm2r-111" style="edgeStyle=orthogonalEdgeStyle;rounded=0;orthogonalLoop=1;jettySize=auto;html=1;exitX=1;exitY=0.5;exitDx=0;exitDy=0;" edge="1" parent="WIyWlLk6GJQsqaUBKTNV-1" source="rqn4Hq65323MsPB9Nm2r-88">
          <mxGeometry relative="1" as="geometry">
            <mxPoint x="1760" y="1520" as="targetPoint" />
          </mxGeometry>
        </mxCell>
        <mxCell id="rqn4Hq65323MsPB9Nm2r-88" value="&quot; Anda Keluar Dari Program &quot;" style="shape=parallelogram;perimeter=parallelogramPerimeter;whiteSpace=wrap;html=1;fixedSize=1;" vertex="1" parent="WIyWlLk6GJQsqaUBKTNV-1">
          <mxGeometry x="1440" y="1490" width="140" height="60" as="geometry" />
        </mxCell>
        <mxCell id="rqn4Hq65323MsPB9Nm2r-112" style="edgeStyle=orthogonalEdgeStyle;rounded=0;orthogonalLoop=1;jettySize=auto;html=1;exitX=1;exitY=0.5;exitDx=0;exitDy=0;" edge="1" parent="WIyWlLk6GJQsqaUBKTNV-1" source="rqn4Hq65323MsPB9Nm2r-89">
          <mxGeometry relative="1" as="geometry">
            <mxPoint x="1760" y="1630" as="targetPoint" />
          </mxGeometry>
        </mxCell>
        <mxCell id="rqn4Hq65323MsPB9Nm2r-89" value="&quot;Pilihan Tidak Valid&quot;" style="shape=parallelogram;perimeter=parallelogramPerimeter;whiteSpace=wrap;html=1;fixedSize=1;" vertex="1" parent="WIyWlLk6GJQsqaUBKTNV-1">
          <mxGeometry x="1290" y="1600" width="140" height="60" as="geometry" />
        </mxCell>
        <mxCell id="rqn4Hq65323MsPB9Nm2r-90" value="&lt;b&gt;T&lt;/b&gt;" style="text;html=1;align=center;verticalAlign=middle;resizable=0;points=[];autosize=1;strokeColor=none;fillColor=none;" vertex="1" parent="WIyWlLk6GJQsqaUBKTNV-1">
          <mxGeometry x="1400" y="1370" width="30" height="30" as="geometry" />
        </mxCell>
        <mxCell id="rqn4Hq65323MsPB9Nm2r-91" value="&lt;b&gt;F&lt;/b&gt;" style="text;html=1;align=center;verticalAlign=middle;resizable=0;points=[];autosize=1;strokeColor=none;fillColor=none;" vertex="1" parent="WIyWlLk6GJQsqaUBKTNV-1">
          <mxGeometry x="1330" y="1440" width="30" height="30" as="geometry" />
        </mxCell>
        <mxCell id="rqn4Hq65323MsPB9Nm2r-92" value="&lt;b&gt;T&lt;/b&gt;" style="text;html=1;align=center;verticalAlign=middle;resizable=0;points=[];autosize=1;strokeColor=none;fillColor=none;" vertex="1" parent="WIyWlLk6GJQsqaUBKTNV-1">
          <mxGeometry x="1400" y="1490" width="30" height="30" as="geometry" />
        </mxCell>
        <mxCell id="rqn4Hq65323MsPB9Nm2r-93" value="&lt;b&gt;F&lt;/b&gt;" style="text;html=1;align=center;verticalAlign=middle;resizable=0;points=[];autosize=1;strokeColor=none;fillColor=none;" vertex="1" parent="WIyWlLk6GJQsqaUBKTNV-1">
          <mxGeometry x="1330" y="1550" width="30" height="30" as="geometry" />
        </mxCell>
        <mxCell id="rqn4Hq65323MsPB9Nm2r-94" value="&lt;b&gt;T&lt;/b&gt;" style="text;html=1;align=center;verticalAlign=middle;resizable=0;points=[];autosize=1;strokeColor=none;fillColor=none;" vertex="1" parent="WIyWlLk6GJQsqaUBKTNV-1">
          <mxGeometry x="160" y="1370" width="30" height="30" as="geometry" />
        </mxCell>
        <mxCell id="rqn4Hq65323MsPB9Nm2r-96" value="&lt;b&gt;F&lt;/b&gt;" style="text;html=1;align=center;verticalAlign=middle;resizable=0;points=[];autosize=1;strokeColor=none;fillColor=none;" vertex="1" parent="WIyWlLk6GJQsqaUBKTNV-1">
          <mxGeometry x="90" y="1080" width="30" height="30" as="geometry" />
        </mxCell>
        <mxCell id="rqn4Hq65323MsPB9Nm2r-101" style="edgeStyle=orthogonalEdgeStyle;rounded=0;orthogonalLoop=1;jettySize=auto;html=1;exitX=1;exitY=0.5;exitDx=0;exitDy=0;entryX=0;entryY=0.5;entryDx=0;entryDy=0;" edge="1" parent="WIyWlLk6GJQsqaUBKTNV-1" source="rqn4Hq65323MsPB9Nm2r-97" target="rqn4Hq65323MsPB9Nm2r-100">
          <mxGeometry relative="1" as="geometry" />
        </mxCell>
        <mxCell id="rqn4Hq65323MsPB9Nm2r-105" style="edgeStyle=orthogonalEdgeStyle;rounded=0;orthogonalLoop=1;jettySize=auto;html=1;exitX=0.5;exitY=1;exitDx=0;exitDy=0;entryX=0.5;entryY=0;entryDx=0;entryDy=0;" edge="1" parent="WIyWlLk6GJQsqaUBKTNV-1" source="rqn4Hq65323MsPB9Nm2r-97" target="rqn4Hq65323MsPB9Nm2r-104">
          <mxGeometry relative="1" as="geometry" />
        </mxCell>
        <mxCell id="rqn4Hq65323MsPB9Nm2r-97" value="jenis = &#39;D&#39;" style="rhombus;whiteSpace=wrap;html=1;" vertex="1" parent="WIyWlLk6GJQsqaUBKTNV-1">
          <mxGeometry x="80" y="1720" width="80" height="80" as="geometry" />
        </mxCell>
        <mxCell id="rqn4Hq65323MsPB9Nm2r-99" value="&lt;b&gt;F&lt;/b&gt;" style="text;html=1;align=center;verticalAlign=middle;resizable=0;points=[];autosize=1;strokeColor=none;fillColor=none;" vertex="1" parent="WIyWlLk6GJQsqaUBKTNV-1">
          <mxGeometry x="90" y="1440" width="30" height="30" as="geometry" />
        </mxCell>
        <mxCell id="rqn4Hq65323MsPB9Nm2r-108" style="edgeStyle=orthogonalEdgeStyle;rounded=0;orthogonalLoop=1;jettySize=auto;html=1;exitX=0.5;exitY=1;exitDx=0;exitDy=0;" edge="1" parent="WIyWlLk6GJQsqaUBKTNV-1" source="rqn4Hq65323MsPB9Nm2r-100">
          <mxGeometry relative="1" as="geometry">
            <mxPoint x="120" y="2000" as="targetPoint" />
            <Array as="points">
              <mxPoint x="300" y="2000" />
              <mxPoint x="120" y="2000" />
            </Array>
          </mxGeometry>
        </mxCell>
        <mxCell id="rqn4Hq65323MsPB9Nm2r-100" value="&quot; Anda Keluar Dari Program &quot;" style="shape=parallelogram;perimeter=parallelogramPerimeter;whiteSpace=wrap;html=1;fixedSize=1;" vertex="1" parent="WIyWlLk6GJQsqaUBKTNV-1">
          <mxGeometry x="200" y="1720" width="200" height="80" as="geometry" />
        </mxCell>
        <mxCell id="rqn4Hq65323MsPB9Nm2r-102" value="&lt;b&gt;T&lt;/b&gt;" style="text;html=1;align=center;verticalAlign=middle;resizable=0;points=[];autosize=1;strokeColor=none;fillColor=none;" vertex="1" parent="WIyWlLk6GJQsqaUBKTNV-1">
          <mxGeometry x="160" y="1730" width="30" height="30" as="geometry" />
        </mxCell>
        <mxCell id="rqn4Hq65323MsPB9Nm2r-107" style="edgeStyle=orthogonalEdgeStyle;rounded=0;orthogonalLoop=1;jettySize=auto;html=1;exitX=0.5;exitY=1;exitDx=0;exitDy=0;" edge="1" parent="WIyWlLk6GJQsqaUBKTNV-1" source="rqn4Hq65323MsPB9Nm2r-104" target="9HEpveWAv9ixlDzTCL7B-16">
          <mxGeometry relative="1" as="geometry" />
        </mxCell>
        <mxCell id="rqn4Hq65323MsPB9Nm2r-104" value="&quot; Diskon Tidak Dihitung &quot;" style="shape=parallelogram;perimeter=parallelogramPerimeter;whiteSpace=wrap;html=1;fixedSize=1;" vertex="1" parent="WIyWlLk6GJQsqaUBKTNV-1">
          <mxGeometry x="60" y="1880" width="120" height="60" as="geometry" />
        </mxCell>
        <mxCell id="rqn4Hq65323MsPB9Nm2r-106" value="&lt;b&gt;F&lt;/b&gt;" style="text;html=1;align=center;verticalAlign=middle;resizable=0;points=[];autosize=1;strokeColor=none;fillColor=none;" vertex="1" parent="WIyWlLk6GJQsqaUBKTNV-1">
          <mxGeometry x="90" y="1800" width="30" height="30" as="geometry" />
        </mxCell>
      </root>
    </mxGraphModel>
  </diagram>
</mxfile>
